<mxfile host="app.diagrams.net" agent="Mozilla/5.0 (X11; Linux x86_64) AppleWebKit/537.36 (KHTML, like Gecko) Chrome/134.0.0.0 Safari/537.36" version="26.1.3">
  <diagram id="6a731a19-8d31-9384-78a2-239565b7b9f0" name="Page-1">
    <mxGraphModel dx="1288" dy="718" grid="1" gridSize="10" guides="1" tooltips="1" connect="1" arrows="1" fold="1" page="1" pageScale="1" pageWidth="827" pageHeight="1169" background="none" math="0" shadow="0">
      <root>
        <mxCell id="0" />
        <mxCell id="1" parent="0" />
        <mxCell id="5yECqGZ0epXN8AQ9EOm3-2257" value="Internet" style="shape=mxgraph.cisco.storage.cloud;sketch=0;html=1;pointerEvents=1;dashed=0;fillColor=#036897;strokeColor=#ffffff;strokeWidth=2;verticalLabelPosition=middle;verticalAlign=middle;align=center;outlineConnect=0;labelPosition=center;fontStyle=1;fontColor=#FFFFFF;" vertex="1" parent="1">
          <mxGeometry x="330" y="50" width="186" height="106" as="geometry" />
        </mxCell>
        <mxCell id="5yECqGZ0epXN8AQ9EOm3-2258" value="" style="shape=mxgraph.cisco.routers.wireless_router;html=1;pointerEvents=1;dashed=0;fillColor=#036897;strokeColor=#ffffff;strokeWidth=2;verticalLabelPosition=bottom;verticalAlign=top;align=center;outlineConnect=0;" vertex="1" parent="1">
          <mxGeometry x="390" y="220" width="78" height="77" as="geometry" />
        </mxCell>
        <mxCell id="5yECqGZ0epXN8AQ9EOm3-2259" value="" style="shape=mxgraph.cisco.switches.workgroup_switch;sketch=0;html=1;pointerEvents=1;dashed=0;fillColor=#036897;strokeColor=#ffffff;strokeWidth=2;verticalLabelPosition=bottom;verticalAlign=top;align=center;outlineConnect=0;" vertex="1" parent="1">
          <mxGeometry x="378.5" y="370" width="101" height="50" as="geometry" />
        </mxCell>
        <mxCell id="5yECqGZ0epXN8AQ9EOm3-2262" value="" style="edgeStyle=none;rounded=0;orthogonalLoop=1;jettySize=auto;html=1;shape=link;" edge="1" parent="1" source="5yECqGZ0epXN8AQ9EOm3-2275" target="5yECqGZ0epXN8AQ9EOm3-2259">
          <mxGeometry relative="1" as="geometry">
            <mxPoint x="174" y="397.7127659574468" as="sourcePoint" />
            <mxPoint x="254" y="398.0000000000002" as="targetPoint" />
          </mxGeometry>
        </mxCell>
        <mxCell id="5yECqGZ0epXN8AQ9EOm3-2263" value="" style="edgeStyle=none;rounded=0;orthogonalLoop=1;jettySize=auto;html=1;shape=link;" edge="1" parent="1" source="5yECqGZ0epXN8AQ9EOm3-2259" target="5yECqGZ0epXN8AQ9EOm3-2258">
          <mxGeometry relative="1" as="geometry">
            <mxPoint x="173.5" y="322" as="sourcePoint" />
            <mxPoint x="378.5" y="320" as="targetPoint" />
          </mxGeometry>
        </mxCell>
        <mxCell id="5yECqGZ0epXN8AQ9EOm3-2264" value="" style="edgeStyle=none;rounded=0;orthogonalLoop=1;jettySize=auto;html=1;shape=link;" edge="1" parent="1" source="5yECqGZ0epXN8AQ9EOm3-2258" target="5yECqGZ0epXN8AQ9EOm3-2257">
          <mxGeometry relative="1" as="geometry">
            <mxPoint x="439" y="380" as="sourcePoint" />
            <mxPoint x="439" y="307" as="targetPoint" />
          </mxGeometry>
        </mxCell>
        <mxCell id="5yECqGZ0epXN8AQ9EOm3-2265" value="Arduino 1" style="outlineConnect=0;dashed=0;verticalLabelPosition=bottom;verticalAlign=top;align=center;html=1;shape=mxgraph.aws3.mqtt_protocol;fillColor=#5294CF;gradientColor=none;" vertex="1" parent="1">
          <mxGeometry x="120" y="470" width="63" height="66" as="geometry" />
        </mxCell>
        <mxCell id="5yECqGZ0epXN8AQ9EOm3-2266" value="Arduino 2" style="outlineConnect=0;dashed=0;verticalLabelPosition=bottom;verticalAlign=top;align=center;html=1;shape=mxgraph.aws3.mqtt_protocol;fillColor=#5294CF;gradientColor=none;" vertex="1" parent="1">
          <mxGeometry x="120" y="560" width="63" height="66" as="geometry" />
        </mxCell>
        <mxCell id="5yECqGZ0epXN8AQ9EOm3-2267" value="Arduino 3" style="outlineConnect=0;dashed=0;verticalLabelPosition=bottom;verticalAlign=top;align=center;html=1;shape=mxgraph.aws3.mqtt_protocol;fillColor=#5294CF;gradientColor=none;" vertex="1" parent="1">
          <mxGeometry x="120" y="670" width="63" height="66" as="geometry" />
        </mxCell>
        <mxCell id="5yECqGZ0epXN8AQ9EOm3-2268" value="Arduino 4" style="outlineConnect=0;dashed=0;verticalLabelPosition=bottom;verticalAlign=top;align=center;html=1;shape=mxgraph.aws3.mqtt_protocol;fillColor=#5294CF;gradientColor=none;" vertex="1" parent="1">
          <mxGeometry x="780" y="510" width="63" height="66" as="geometry" />
        </mxCell>
        <mxCell id="5yECqGZ0epXN8AQ9EOm3-2269" value="" style="edgeStyle=orthogonalEdgeStyle;rounded=0;orthogonalLoop=1;jettySize=auto;html=1;shape=link;" edge="1" parent="1" source="5yECqGZ0epXN8AQ9EOm3-2265" target="5yECqGZ0epXN8AQ9EOm3-2259">
          <mxGeometry relative="1" as="geometry">
            <mxPoint x="184" y="408" as="sourcePoint" />
            <mxPoint x="389" y="406" as="targetPoint" />
            <Array as="points">
              <mxPoint x="290" y="503" />
              <mxPoint x="290" y="395" />
            </Array>
          </mxGeometry>
        </mxCell>
        <mxCell id="5yECqGZ0epXN8AQ9EOm3-2270" value="" style="edgeStyle=orthogonalEdgeStyle;rounded=0;orthogonalLoop=1;jettySize=auto;html=1;shape=link;" edge="1" parent="1" source="5yECqGZ0epXN8AQ9EOm3-2266" target="5yECqGZ0epXN8AQ9EOm3-2259">
          <mxGeometry relative="1" as="geometry">
            <mxPoint x="193" y="501" as="sourcePoint" />
            <mxPoint x="389" y="425" as="targetPoint" />
            <Array as="points">
              <mxPoint x="290" y="593" />
              <mxPoint x="290" y="395" />
            </Array>
          </mxGeometry>
        </mxCell>
        <mxCell id="5yECqGZ0epXN8AQ9EOm3-2271" value="" style="edgeStyle=orthogonalEdgeStyle;rounded=0;orthogonalLoop=1;jettySize=auto;html=1;shape=link;" edge="1" parent="1" source="5yECqGZ0epXN8AQ9EOm3-2267" target="5yECqGZ0epXN8AQ9EOm3-2259">
          <mxGeometry relative="1" as="geometry">
            <mxPoint x="203" y="511" as="sourcePoint" />
            <mxPoint x="399" y="435" as="targetPoint" />
            <Array as="points">
              <mxPoint x="290" y="703" />
              <mxPoint x="290" y="395" />
            </Array>
          </mxGeometry>
        </mxCell>
        <mxCell id="5yECqGZ0epXN8AQ9EOm3-2272" value="" style="edgeStyle=none;rounded=0;orthogonalLoop=1;jettySize=auto;html=1;shape=link;" edge="1" parent="1" source="5yECqGZ0epXN8AQ9EOm3-2273" target="5yECqGZ0epXN8AQ9EOm3-2259">
          <mxGeometry relative="1" as="geometry">
            <mxPoint x="191" y="680" as="sourcePoint" />
            <mxPoint x="416" y="430" as="targetPoint" />
          </mxGeometry>
        </mxCell>
        <mxCell id="5yECqGZ0epXN8AQ9EOm3-2273" value="" style="shape=mxgraph.cisco.switches.workgroup_switch;sketch=0;html=1;pointerEvents=1;dashed=0;fillColor=#036897;strokeColor=#ffffff;strokeWidth=2;verticalLabelPosition=bottom;verticalAlign=top;align=center;outlineConnect=0;" vertex="1" parent="1">
          <mxGeometry x="881" y="364" width="101" height="50" as="geometry" />
        </mxCell>
        <mxCell id="5yECqGZ0epXN8AQ9EOm3-2274" value="" style="edgeStyle=orthogonalEdgeStyle;rounded=0;orthogonalLoop=1;jettySize=auto;html=1;shape=link;entryX=0.95;entryY=0.5;entryDx=0;entryDy=0;entryPerimeter=0;" edge="1" parent="1" source="5yECqGZ0epXN8AQ9EOm3-2273" target="5yECqGZ0epXN8AQ9EOm3-2268">
          <mxGeometry relative="1" as="geometry">
            <mxPoint x="590" y="405" as="sourcePoint" />
            <mxPoint x="490" y="405" as="targetPoint" />
            <Array as="points">
              <mxPoint x="932" y="543" />
              <mxPoint x="854" y="543" />
            </Array>
          </mxGeometry>
        </mxCell>
        <mxCell id="5yECqGZ0epXN8AQ9EOm3-2275" value="RPI 4B - Home assistant" style="shape=mxgraph.cisco.servers.standard_host;sketch=0;html=1;pointerEvents=1;dashed=0;fillColor=#036897;strokeColor=#ffffff;strokeWidth=2;verticalLabelPosition=bottom;verticalAlign=top;align=center;outlineConnect=0;" vertex="1" parent="1">
          <mxGeometry x="120" y="364" width="43" height="62" as="geometry" />
        </mxCell>
        <mxCell id="5yECqGZ0epXN8AQ9EOm3-2276" value="Waveshare 30Ch modbus relay - 1" style="shape=mxgraph.cisco.servers.communications_server;sketch=0;html=1;pointerEvents=1;dashed=0;fillColor=#036897;strokeColor=#ffffff;strokeWidth=2;verticalLabelPosition=bottom;verticalAlign=top;align=center;outlineConnect=0;" vertex="1" parent="1">
          <mxGeometry x="120" y="810" width="54" height="56" as="geometry" />
        </mxCell>
        <mxCell id="5yECqGZ0epXN8AQ9EOm3-2277" value="Waveshare 30Ch modbus relay - 2" style="shape=mxgraph.cisco.servers.communications_server;sketch=0;html=1;pointerEvents=1;dashed=0;fillColor=#036897;strokeColor=#ffffff;strokeWidth=2;verticalLabelPosition=bottom;verticalAlign=top;align=center;outlineConnect=0;" vertex="1" parent="1">
          <mxGeometry x="120" y="910" width="54" height="56" as="geometry" />
        </mxCell>
        <mxCell id="5yECqGZ0epXN8AQ9EOm3-2278" value="Waveshare 30Ch modbus relay - 3" style="shape=mxgraph.cisco.servers.communications_server;sketch=0;html=1;pointerEvents=1;dashed=0;fillColor=#036897;strokeColor=#ffffff;strokeWidth=2;verticalLabelPosition=bottom;verticalAlign=top;align=center;outlineConnect=0;" vertex="1" parent="1">
          <mxGeometry x="114.5" y="1010" width="54" height="56" as="geometry" />
        </mxCell>
        <mxCell id="5yECqGZ0epXN8AQ9EOm3-2279" value="Waveshare 30Ch modbus relay - 4" style="shape=mxgraph.cisco.servers.communications_server;sketch=0;html=1;pointerEvents=1;dashed=0;fillColor=#036897;strokeColor=#ffffff;strokeWidth=2;verticalLabelPosition=bottom;verticalAlign=top;align=center;outlineConnect=0;" vertex="1" parent="1">
          <mxGeometry x="784.5" y="614" width="54" height="56" as="geometry" />
        </mxCell>
        <mxCell id="5yECqGZ0epXN8AQ9EOm3-2280" value="" style="edgeStyle=orthogonalEdgeStyle;rounded=0;orthogonalLoop=1;jettySize=auto;html=1;shape=link;" edge="1" parent="1" source="5yECqGZ0epXN8AQ9EOm3-2279" target="5yECqGZ0epXN8AQ9EOm3-2273">
          <mxGeometry relative="1" as="geometry">
            <mxPoint x="532.5" y="798" as="sourcePoint" />
            <mxPoint x="728.5" y="490" as="targetPoint" />
            <Array as="points">
              <mxPoint x="932" y="640" />
            </Array>
          </mxGeometry>
        </mxCell>
        <mxCell id="5yECqGZ0epXN8AQ9EOm3-2281" value="" style="edgeStyle=orthogonalEdgeStyle;rounded=0;orthogonalLoop=1;jettySize=auto;html=1;shape=link;" edge="1" parent="1" source="5yECqGZ0epXN8AQ9EOm3-2276" target="5yECqGZ0epXN8AQ9EOm3-2259">
          <mxGeometry relative="1" as="geometry">
            <mxPoint x="193" y="713" as="sourcePoint" />
            <mxPoint x="389" y="405" as="targetPoint" />
            <Array as="points">
              <mxPoint x="290" y="840" />
              <mxPoint x="290" y="395" />
            </Array>
          </mxGeometry>
        </mxCell>
        <mxCell id="5yECqGZ0epXN8AQ9EOm3-2283" value="" style="edgeStyle=orthogonalEdgeStyle;rounded=0;orthogonalLoop=1;jettySize=auto;html=1;shape=link;" edge="1" parent="1" source="5yECqGZ0epXN8AQ9EOm3-2277" target="5yECqGZ0epXN8AQ9EOm3-2259">
          <mxGeometry relative="1" as="geometry">
            <mxPoint x="200" y="870" as="sourcePoint" />
            <mxPoint x="389" y="405" as="targetPoint" />
            <Array as="points">
              <mxPoint x="290" y="940" />
              <mxPoint x="290" y="395" />
            </Array>
          </mxGeometry>
        </mxCell>
        <mxCell id="5yECqGZ0epXN8AQ9EOm3-2284" value="" style="edgeStyle=orthogonalEdgeStyle;rounded=0;orthogonalLoop=1;jettySize=auto;html=1;shape=link;" edge="1" parent="1" source="5yECqGZ0epXN8AQ9EOm3-2278" target="5yECqGZ0epXN8AQ9EOm3-2259">
          <mxGeometry relative="1" as="geometry">
            <mxPoint x="184" y="950" as="sourcePoint" />
            <mxPoint x="389" y="415" as="targetPoint" />
            <Array as="points">
              <mxPoint x="290" y="1040" />
              <mxPoint x="290" y="395" />
            </Array>
          </mxGeometry>
        </mxCell>
        <mxCell id="5yECqGZ0epXN8AQ9EOm3-2285" value="5x Lan zásuvka pro počítače" style="shape=mxgraph.cisco.computers_and_peripherals.pc;sketch=0;html=1;pointerEvents=1;dashed=0;fillColor=#036897;strokeColor=#ffffff;strokeWidth=2;verticalLabelPosition=bottom;verticalAlign=top;align=center;outlineConnect=0;" vertex="1" parent="1">
          <mxGeometry x="523" y="650" width="78" height="70" as="geometry" />
        </mxCell>
        <mxCell id="5yECqGZ0epXN8AQ9EOm3-2286" value="&lt;b&gt;&lt;font style=&quot;font-size: 15px;&quot;&gt;1 Gbit&lt;/font&gt;&lt;/b&gt;" style="edgeStyle=orthogonalEdgeStyle;rounded=0;orthogonalLoop=1;jettySize=auto;html=1;shape=link;" edge="1" parent="1" source="5yECqGZ0epXN8AQ9EOm3-2285" target="5yECqGZ0epXN8AQ9EOm3-2259">
          <mxGeometry relative="1" as="geometry">
            <mxPoint x="590" y="405" as="sourcePoint" />
            <mxPoint x="490" y="405" as="targetPoint" />
          </mxGeometry>
        </mxCell>
        <mxCell id="5yECqGZ0epXN8AQ9EOm3-2287" value="5x Lan zásuvka pro ostatní" style="shape=mxgraph.cisco.computers_and_peripherals.pc;sketch=0;html=1;pointerEvents=1;dashed=0;fillColor=#036897;strokeColor=#ffffff;strokeWidth=2;verticalLabelPosition=bottom;verticalAlign=top;align=center;outlineConnect=0;" vertex="1" parent="1">
          <mxGeometry x="522" y="1110" width="78" height="70" as="geometry" />
        </mxCell>
        <mxCell id="5yECqGZ0epXN8AQ9EOm3-2288" value="" style="edgeStyle=orthogonalEdgeStyle;rounded=0;orthogonalLoop=1;jettySize=auto;html=1;shape=link;" edge="1" parent="1" source="5yECqGZ0epXN8AQ9EOm3-2287" target="5yECqGZ0epXN8AQ9EOm3-2259">
          <mxGeometry relative="1" as="geometry">
            <mxPoint x="620" y="695" as="sourcePoint" />
            <mxPoint x="439" y="430" as="targetPoint" />
            <Array as="points">
              <mxPoint x="390" y="1140" />
            </Array>
          </mxGeometry>
        </mxCell>
        <mxCell id="5yECqGZ0epXN8AQ9EOm3-2289" value="1x android TV" style="sketch=0;pointerEvents=1;shadow=0;dashed=0;html=1;strokeColor=none;fillColor=#505050;labelPosition=center;verticalLabelPosition=bottom;verticalAlign=top;outlineConnect=0;align=center;shape=mxgraph.office.devices.tv;" vertex="1" parent="1">
          <mxGeometry x="523" y="770" width="59" height="45" as="geometry" />
        </mxCell>
        <mxCell id="5yECqGZ0epXN8AQ9EOm3-2290" value="" style="edgeStyle=orthogonalEdgeStyle;rounded=0;orthogonalLoop=1;jettySize=auto;html=1;shape=link;" edge="1" parent="1" source="5yECqGZ0epXN8AQ9EOm3-2289" target="5yECqGZ0epXN8AQ9EOm3-2259">
          <mxGeometry relative="1" as="geometry">
            <mxPoint x="580" y="875" as="sourcePoint" />
            <mxPoint x="399" y="480" as="targetPoint" />
          </mxGeometry>
        </mxCell>
        <mxCell id="5yECqGZ0epXN8AQ9EOm3-2291" value="" style="shape=mxgraph.cisco.switches.workgroup_switch;sketch=0;html=1;pointerEvents=1;dashed=0;fillColor=#036897;strokeColor=#ffffff;strokeWidth=2;verticalLabelPosition=bottom;verticalAlign=top;align=center;outlineConnect=0;" vertex="1" parent="1">
          <mxGeometry x="1000" y="350" width="101" height="50" as="geometry" />
        </mxCell>
        <mxCell id="5yECqGZ0epXN8AQ9EOm3-2292" value="1x FVE inverter Deye 10kW&lt;div&gt;&lt;br&gt;&lt;/div&gt;" style="shape=mxgraph.cisco.computers_and_peripherals.pc;sketch=0;html=1;pointerEvents=1;dashed=0;fillColor=#036897;strokeColor=#ffffff;strokeWidth=2;verticalLabelPosition=bottom;verticalAlign=top;align=center;outlineConnect=0;" vertex="1" parent="1">
          <mxGeometry x="772.5" y="720" width="78" height="70" as="geometry" />
        </mxCell>
        <mxCell id="5yECqGZ0epXN8AQ9EOm3-2295" value="" style="edgeStyle=orthogonalEdgeStyle;rounded=0;orthogonalLoop=1;jettySize=auto;html=1;shape=link;" edge="1" parent="1" source="5yECqGZ0epXN8AQ9EOm3-2292" target="5yECqGZ0epXN8AQ9EOm3-2273">
          <mxGeometry relative="1" as="geometry">
            <mxPoint x="848" y="650" as="sourcePoint" />
            <mxPoint x="942" y="424" as="targetPoint" />
            <Array as="points">
              <mxPoint x="932" y="750" />
            </Array>
          </mxGeometry>
        </mxCell>
        <mxCell id="5yECqGZ0epXN8AQ9EOm3-2296" value="1x Rekuperace Komfovent R400V - C6M" style="sketch=0;outlineConnect=0;fontColor=#232F3E;gradientColor=none;fillColor=#7AA116;strokeColor=none;dashed=0;verticalLabelPosition=bottom;verticalAlign=top;align=center;html=1;fontSize=12;fontStyle=0;aspect=fixed;pointerEvents=1;shape=mxgraph.aws4.iot_over_the_air_update;" vertex="1" parent="1">
          <mxGeometry x="523" y="980" width="78" height="63" as="geometry" />
        </mxCell>
        <mxCell id="5yECqGZ0epXN8AQ9EOm3-2300" value="" style="edgeStyle=orthogonalEdgeStyle;rounded=0;orthogonalLoop=1;jettySize=auto;html=1;shape=link;" edge="1" parent="1" source="5yECqGZ0epXN8AQ9EOm3-2296" target="5yECqGZ0epXN8AQ9EOm3-2259">
          <mxGeometry relative="1" as="geometry">
            <mxPoint x="533" y="802" as="sourcePoint" />
            <mxPoint x="439" y="430" as="targetPoint" />
            <Array as="points">
              <mxPoint x="390" y="1012" />
            </Array>
          </mxGeometry>
        </mxCell>
        <mxCell id="5yECqGZ0epXN8AQ9EOm3-2302" value="2x AP" style="shape=mxgraph.cisco.misc.access_point;sketch=0;html=1;pointerEvents=1;dashed=0;fillColor=#036897;strokeColor=#ffffff;strokeWidth=2;verticalLabelPosition=bottom;verticalAlign=top;align=center;outlineConnect=0;" vertex="1" parent="1">
          <mxGeometry x="515" y="860" width="75" height="34" as="geometry" />
        </mxCell>
        <mxCell id="5yECqGZ0epXN8AQ9EOm3-2303" value="" style="edgeStyle=orthogonalEdgeStyle;rounded=0;orthogonalLoop=1;jettySize=auto;html=1;shape=link;" edge="1" parent="1" source="5yECqGZ0epXN8AQ9EOm3-2302" target="5yECqGZ0epXN8AQ9EOm3-2259">
          <mxGeometry relative="1" as="geometry">
            <mxPoint x="533" y="802" as="sourcePoint" />
            <mxPoint x="439" y="430" as="targetPoint" />
          </mxGeometry>
        </mxCell>
      </root>
    </mxGraphModel>
  </diagram>
</mxfile>
